<?xml version="1.0" encoding="UTF-8" standalone="no"?>
<!-- Svg Vector Icons : http://www.onlinewebfonts.com/icon -->

<svg
   version="1.1"
   x="0px"
   y="0px"
   viewBox="0 0 27.999996 27.999996"
   enable-background="new 0 0 1000 1000"
   xml:space="preserve"
   id="svg8"
   sodipodi:docname="safew_icon_pink_simple.svg"
   width="27.999996"
   height="27.999996"
   inkscape:version="1.2 (dc2aedaf03, 2022-05-15)"
   inkscape:export-filename="public\images\safew_icon_128.png"
   inkscape:export-xdpi="438.85999"
   inkscape:export-ydpi="438.85999"
   xmlns:inkscape="http://www.inkscape.org/namespaces/inkscape"
   xmlns:sodipodi="http://sodipodi.sourceforge.net/DTD/sodipodi-0.dtd"
   xmlns="http://www.w3.org/2000/svg"
   xmlns:svg="http://www.w3.org/2000/svg"><defs
   id="defs12" /><sodipodi:namedview
   id="namedview10"
   pagecolor="#ffffff"
   bordercolor="#666666"
   borderopacity="1.0"
   inkscape:pageshadow="2"
   inkscape:pageopacity="0.0"
   inkscape:pagecheckerboard="0"
   showgrid="false"
   fit-margin-top="0"
   fit-margin-left="0"
   fit-margin-right="0"
   fit-margin-bottom="0"
   inkscape:zoom="18.232145"
   inkscape:cx="6.4446612"
   inkscape:cy="9.9823689"
   inkscape:window-width="1920"
   inkscape:window-height="1017"
   inkscape:window-x="1912"
   inkscape:window-y="-8"
   inkscape:window-maximized="1"
   inkscape:current-layer="svg8"
   inkscape:showpageshadow="2"
   inkscape:deskcolor="#d1d1d1" />
<metadata
   id="metadata2"> Svg Vector Icons : http://www.onlinewebfonts.com/icon </metadata>
<g
   id="g6"
   transform="matrix(0.02856851,0,0,0.03264925,-0.2856851,-2.3246266)"
   style="fill:#333333"
   inkscape:export-filename="C:\Users\thier\Ergo\SAFEW\public\images\safew_icon_128.png"
   inkscape:export-xdpi="12.538775"
   inkscape:export-ydpi="12.538775"><path
     d="M 928.3,500 V 380.4 c 0,-68.2 -55.1,-124.1 -123,-125.3 V 194.5 C 805.3,126.7 748.9,71.2 679.9,71.2 H 135.4 C 66.4,71.2 10,126.6 10,194.4 c 0,0.6 0,1.2 0,1.8 v 0 607.2 c 0,68.9 56.4,125.4 125.4,125.4 H 803 c 68.9,0 125.4,-56.4 125.4,-125.4 V 683.5 c 34,-0.5 61.7,-28.5 61.7,-62.7 v -58.3 c -0.1,-34 -27.8,-62 -61.8,-62.5 z m -1,120.8 c 0,0 -0.1,0.1 -0.1,0.1 H 746.1 c 0,0 -0.1,-0.1 -0.1,-0.1 v -58 c 0,0 0.1,-0.1 0.1,-0.1 h 181.1 c 0,0 0.1,0.1 0.1,0.1 z M 90.8,152.1 c 12,-11.8 27.8,-18.2 44.6,-18.2 h 544.4 c 16.8,0 32.7,6.5 44.6,18.2 11.7,11.5 18.1,26.5 18.1,42.4 V 255 H 135.4 c -16.8,0 -32.7,-6.5 -44.6,-18.2 -11.7,-11.5 -18.1,-26.5 -18.1,-42.4 0,-15.8 6.4,-30.9 18.1,-42.3 z m 756.4,695.6 c -11.9,11.9 -27.6,18.5 -44.2,18.5 H 135.4 c -16.6,0 -32.3,-6.6 -44.2,-18.5 C 79.3,835.8 72.7,820.1 72.7,803.5 V 301.1 c 18.5,10.6 39.9,16.6 62.7,16.6 v 0 h 0.1 c 0,0 0,0 0,0 H 679.9 803 c 16.6,0 32.3,6.6 44.2,18.5 11.9,11.9 18.5,27.6 18.5,44.2 V 500 H 746 c -34.5,0 -62.7,28.2 -62.7,62.7 V 621 c 0,34.5 28.2,62.7 62.7,62.7 h 119.7 v 119.9 c -0.1,16.5 -6.6,32.2 -18.5,44.1 z"
     id="path4"
     style="fill:#333333" /></g>
<style
   type="text/css"
   id="style829">
	.st0{fill-rule:evenodd;clip-rule:evenodd;}
</style><path
   style="fill:#ffaaaa;stroke-width:0.0343388"
   d="M 3.1724946,25.877572 C 2.7195523,25.752222 2.2735176,25.361405 2.0483435,24.89259 1.7837783,24.341762 1.8027007,25.041224 1.8027007,15.81246 c 0,-4.544781 0.011589,-8.2579761 0.025753,-8.2515447 0.014164,0.00643 0.1222836,0.062007 0.2402655,0.1235006 0.252642,0.1316805 0.4908826,0.22307 0.7984336,0.3062803 0.2098194,0.056768 0.8197863,0.061469 10.1809662,0.078458 l 9.957775,0.018071 0.196572,0.07941 c 0.429223,0.1733937 0.797215,0.5354751 1.012267,0.9960068 0.208593,0.4467038 0.216153,0.5443132 0.216153,2.790929 v 2.023078 h -1.766673 c -1.157116,0 -1.829455,0.01309 -1.948634,0.03795 -0.706472,0.147341 -1.313689,0.813354 -1.452615,1.593269 -0.06901,0.387413 -0.06901,2.394106 0,2.78152 0.138926,0.779915 0.746143,1.445928 1.452615,1.593268 0.119179,0.02486 0.791518,0.03795 1.948634,0.03795 h 1.766673 v 2.023078 c 0,2.297475 -0.0059,2.366991 -0.243317,2.848581 -0.192409,0.390356 -0.497785,0.7002 -0.870856,0.883601 l -0.272913,0.134163 -9.856548,0.0057 c -7.8965268,0.0045 -9.8880085,-0.003 -10.0147574,-0.03812 z M 13.401696,24.034088 c 1.503994,-0.644576 2.762956,-1.189304 2.797692,-1.210508 0.03474,-0.0212 0.09157,-0.08491 0.126298,-0.141574 0.128732,-0.210035 2.276028,-5.598215 2.278624,-5.71772 0.003,-0.140358 -2.341731,-5.655265 -2.443694,-5.747549 -0.08227,-0.07447 -5.58542,-2.2924849 -5.739024,-2.3130894 -0.100981,-0.013546 -0.5712926,0.176624 -2.9017893,1.1733364 -1.9392244,0.829372 -2.8090862,1.217678 -2.8731343,1.282564 -0.1237156,0.125336 -2.3438855,5.600794 -2.3422115,5.776442 7.594e-4,0.07965 0.3925412,1.035373 1.1613763,2.833104 0.6381269,1.492101 1.1885204,2.759272 1.2230966,2.815934 0.034576,0.05666 0.09851,0.124949 0.1420747,0.15175 0.043565,0.0268 1.3153463,0.547891 2.8261813,1.157979 1.9093817,0.771025 2.7870692,1.109562 2.8784732,1.110269 0.09787,7.6e-4 0.830745,-0.298661 2.866037,-1.170938 z"
   id="path1212"
   inkscape:export-filename="C:\Users\thier\Ergo\SAFEW\public\images\safew_icon_128.png"
   inkscape:export-xdpi="12.538775"
   inkscape:export-ydpi="12.538775" /><path
   style="fill:#ffaaaa;stroke-width:0.0343388"
   d="m 21.031508,16.998627 v -0.927198 h 2.575287 2.575286 v 0.927198 0.927198 h -2.575286 -2.575287 z"
   id="path1251"
   inkscape:export-filename="C:\Users\thier\Ergo\SAFEW\public\images\safew_icon_128.png"
   inkscape:export-xdpi="12.538775"
   inkscape:export-ydpi="12.538775" /><path
   style="fill:#ffaaaa;stroke-width:0.0343388"
   d="M 3.1731591,5.9256688 C 2.6148931,5.7716502 2.0900373,5.2416082 1.9060276,4.6460165 1.5641471,3.5394379 2.2191825,2.3180264 3.2723041,2.0983891 c 0.2454901,-0.051199 15.8796499,-0.054004 16.1491069,-0.0029 0.435408,0.082582 0.857331,0.3717624 1.123837,0.7702622 0.321596,0.4808751 0.327052,0.5112722 0.340868,1.8990131 l 0.01205,1.2105082 -8.783732,-0.00307 C 5.1428666,5.9697676 3.2981992,5.9601665 3.1731571,5.9256688 Z"
   id="path1290"
   inkscape:export-filename="C:\Users\thier\Ergo\SAFEW\public\images\safew_icon_128.png"
   inkscape:export-xdpi="12.538775"
   inkscape:export-ydpi="12.538775" /><text
   xml:space="preserve"
   style="fill:#000000"
   x="9.7891569"
   y="16.79217"
   id="text440"><tspan
     sodipodi:role="line"
     id="tspan438"
     x="9.7891569"
     y="16.79217" /></text><path
   sodipodi:type="star"
   style="fill:#333333;fill-opacity:1"
   id="path2181"
   inkscape:flatsided="true"
   sodipodi:sides="8"
   sodipodi:cx="13.554217"
   sodipodi:cy="39.909637"
   sodipodi:r1="7.5616808"
   sodipodi:r2="6.9860821"
   sodipodi:arg1="0.79948174"
   sodipodi:arg2="1.1921808"
   inkscape:rounded="0"
   inkscape:randomized="0"
   d="m 18.825302,45.331324 -5.377577,2.139244 -5.3151944,-2.289846 -2.1392441,-5.377577 2.2898465,-5.315194 5.377576,-2.139244 5.315195,2.289846 2.139244,5.377576 z"
   transform="matrix(1.1394295,0,0,1.0946129,-4.9772071,-26.629881)" /><path
   sodipodi:type="star"
   style="fill:#ffffff;fill-opacity:1"
   id="path2184"
   inkscape:flatsided="true"
   sodipodi:sides="8"
   sodipodi:cx="-2.7861445"
   sodipodi:cy="34.412651"
   sodipodi:r1="6.0700431"
   sodipodi:r2="5.6079888"
   sodipodi:arg1="0.78539816"
   sodipodi:arg2="1.1780972"
   inkscape:rounded="0"
   inkscape:randomized="0"
   d="m 1.5060241,38.70482 -4.2921686,1.777874 -4.2921686,-1.777874 -1.7778745,-4.292169 1.7778745,-4.292169 4.2921686,-1.777874 4.2921686,1.777874 1.7778745,4.292169 z"
   transform="matrix(1.1482644,0.0256992,-0.02565844,1.1121172,14.613347,-21.079305)" /><text
   xml:space="preserve"
   style="font-style:normal;font-variant:normal;font-weight:bold;font-stretch:normal;font-size:9.96643px;font-family:Arial;-inkscape-font-specification:'Arial, Bold';font-variant-ligatures:normal;font-variant-caps:normal;font-variant-numeric:normal;font-variant-east-asian:normal;fill:#333333;fill-opacity:1;stroke-width:0.812526"
   x="7.144455"
   y="21.633404"
   id="text444"
   transform="scale(1.0445058,0.95739058)"><tspan
     sodipodi:role="line"
     id="tspan442"
     x="7.144455"
     y="21.633404"
     style="font-style:normal;font-variant:normal;font-weight:bold;font-stretch:normal;font-size:9.96643px;font-family:Arial;-inkscape-font-specification:'Arial, Bold';font-variant-ligatures:normal;font-variant-caps:normal;font-variant-numeric:normal;font-variant-east-asian:normal;fill:#333333;fill-opacity:1;stroke-width:0.812526">Σ</tspan></text></svg>
